<svg width="939" height="564" viewBox="0 0 939 564" fill="none" xmlns="http://www.w3.org/2000/svg">
<rect width="939" height="564" fill="#E5E5E5"/>
<rect x="-504" y="1" width="1440" height="570" fill="url(#paint0_linear_0_1)"/>
<path d="M216.705 195.91C65.3759 211.608 74.5029 189.365 1 1H936V458.445C940.73 457.619 936 461.448 936 461.448V458.445C929.154 459.64 902.493 470.585 813 517C661.671 595.485 546.646 575.883 512.056 445.074C477.466 314.265 394.457 482.378 320.954 419.589C247.451 356.801 368.035 180.213 216.705 195.91Z" fill="#023E8A" fill-opacity="0.56"/>
<path d="M1 1C74.5029 189.365 65.3759 211.608 216.705 195.91C368.035 180.213 247.451 356.801 320.954 419.589C394.457 482.378 477.466 314.265 512.056 445.074C546.646 575.883 661.671 595.485 813 517C964.329 438.515 936 461.448 936 461.448V1H1Z" stroke="#023E8A" stroke-opacity="0.56"/>
<defs>
<linearGradient id="paint0_linear_0_1" x1="936" y1="285.402" x2="-504" y2="285.402" gradientUnits="userSpaceOnUse">
<stop stop-color="#023E8A"/>
<stop offset="1" stop-color="#0096C7" stop-opacity="0.56"/>
</linearGradient>
</defs>
</svg>
