<svg width="27" height="44" viewBox="0 0 27 44" fill="none" xmlns="http://www.w3.org/2000/svg">
<path d="M23.4062 5.46063H17.8333C17.8333 2.44875 15.834 0 13.375 0C10.9159 0 8.91667 2.44875 8.91667 5.46063H3.34375C1.49772 5.46063 0 7.29506 0 9.55611V39.5896C0 41.8506 1.49772 43.6851 3.34375 43.6851H23.4062C25.2523 43.6851 26.75 41.8506 26.75 39.5896V9.55611C26.75 7.29506 25.2523 5.46063 23.4062 5.46063ZM13.375 3.4129C14.3015 3.4129 15.0469 4.32584 15.0469 5.46063C15.0469 6.59542 14.3015 7.50837 13.375 7.50837C12.4485 7.50837 11.7031 6.59542 11.7031 5.46063C11.7031 4.32584 12.4485 3.4129 13.375 3.4129ZM20.0625 29.3509C20.0625 29.7263 19.8117 30.0335 19.5052 30.0335H15.6042V34.8115C15.6042 35.187 15.3534 35.4941 15.0469 35.4941H11.7031C11.3966 35.4941 11.1458 35.187 11.1458 34.8115V30.0335H7.24479C6.93828 30.0335 6.6875 29.7263 6.6875 29.3509V25.2554C6.6875 24.88 6.93828 24.5728 7.24479 24.5728H11.1458V19.7948C11.1458 19.4194 11.3966 19.1122 11.7031 19.1122H15.0469C15.3534 19.1122 15.6042 19.4194 15.6042 19.7948V24.5728H19.5052C19.8117 24.5728 20.0625 24.88 20.0625 25.2554V29.3509ZM20.0625 12.969C20.0625 13.3444 19.8117 13.6516 19.5052 13.6516H7.24479C6.93828 13.6516 6.6875 13.3444 6.6875 12.969V11.6038C6.6875 11.2284 6.93828 10.9213 7.24479 10.9213H19.5052C19.8117 10.9213 20.0625 11.2284 20.0625 11.6038V12.969Z" fill="#FFB703"/>
</svg>
